<?xml version="1.0" ?><svg data-name="Layer 1" id="Layer_1" viewBox="0 0 512 512" xmlns="http://www.w3.org/2000/svg"><title/><rect fill="#2a66bc" height="412.22" rx="55.43" width="412.22" x="49.89" y="49.89"/><rect fill="#fefefe" height="158.08" width="48.9" x="138.56" y="216"/><circle cx="163.01" cy="162.58" fill="#fefefe" r="26.46"/><path d="M337.6,217.18s-13.6-4.41-34.78-1.41a45.63,45.63,0,0,0-21.23,8.49,35.47,35.47,0,0,0-12.25,16.19V216h-48.9V374.08h48.9V288c0-13.05,7-25.59,18.83-31a31.72,31.72,0,0,1,10.14-2.76s11.14-2.23,20.9,8.76c5.29,6,7.73,13.94,7.73,21.91v89.23h48.9V264.9C378,225,337.6,217.18,337.6,217.18Z" fill="#fefefe"/></svg>